<svg xmlns="http://www.w3.org/2000/svg" xmlns:xlink="http://www.w3.org/1999/xlink" width="500" zoomAndPan="magnify" viewBox="0 0 375 374.999991" height="500" preserveAspectRatio="xMidYMid meet" version="1.0"><defs><clipPath id="id1"><path d="M 44.351562 28.664062 L 330.851562 28.664062 L 330.851562 346.664062 L 44.351562 346.664062 Z M 44.351562 28.664062 " clip-rule="nonzero"/></clipPath></defs><g clip-path="url(#id1)"><path fill="#f87474" d="M 108.125 28.664062 C 90.734375 28.664062 76.335938 43.066406 76.335938 60.464844 L 76.335938 139.964844 C 58.773438 139.964844 44.546875 154.195312 44.546875 171.765625 L 44.546875 251.265625 C 44.546875 268.835938 58.773438 283.066406 76.335938 283.066406 L 76.335938 314.863281 C 76.335938 332.261719 90.734375 346.664062 108.125 346.664062 L 298.863281 346.664062 C 316.253906 346.664062 330.652344 332.261719 330.652344 314.863281 L 330.652344 108.164062 L 251.179688 28.664062 Z M 108.125 60.464844 L 235.285156 60.464844 L 235.285156 124.066406 L 298.863281 124.066406 L 298.863281 314.863281 L 108.125 314.863281 L 108.125 283.066406 L 235.285156 283.066406 C 252.847656 283.066406 267.074219 268.835938 267.074219 251.265625 L 267.074219 171.765625 C 267.074219 154.195312 252.847656 139.964844 235.285156 139.964844 L 108.125 139.964844 Z M 108.683594 171.765625 C 127.3125 171.78125 134.722656 180.304688 137.742188 187.664062 L 108.125 187.664062 C 94.105469 187.457031 92.230469 201.289062 92.230469 204.929688 L 92.230469 218.097656 C 92.230469 221.769531 95.519531 235.523438 110.921875 235.363281 C 115.417969 235.316406 123.640625 232.761719 124.019531 232.539062 L 123.679688 219.464844 L 108.125 219.464844 L 108.46875 203.566406 L 139.914062 203.566406 L 139.914062 241.421875 C 138.960938 242.3125 128.652344 250.644531 109.832031 251.234375 C 104.714844 251.394531 78.433594 251.871094 76.335938 218.097656 L 76.335938 205.023438 C 76.335938 199.378906 75.671875 171.734375 108.683594 171.765625 Z M 155.808594 171.765625 L 171.703125 171.765625 L 171.703125 251.265625 L 155.808594 251.265625 Z M 187.601562 171.765625 L 235.285156 171.765625 L 235.285156 187.664062 L 203.496094 187.664062 L 203.496094 203.566406 L 228.917969 203.566406 L 228.917969 219.464844 L 203.496094 219.464844 L 203.496094 251.265625 L 187.601562 251.265625 Z M 187.601562 171.765625 " fill-opacity="1" fill-rule="nonzero"/></g></svg>